{"title":"Collateral Damage 2002 DVDRip Xvid LKRG","uid":6479689,"size":1266867585,"categoryP":"video","categoryS":"movies","magnet":"?xt=urn:btih:a178c1ebba60b82679e0da035135e503ed378116&amp;dn=Collateral+Damage+2002+DVDRip+Xvid+LKRG&amp;tr=udp%3A%2F%2Ftracker.openbittorrent.com%3A80&amp;tr=udp%3A%2F%2Fopen.demonii.com%3A1337&amp;tr=udp%3A%2F%2Ftracker.coppersurfer.tk%3A6969&amp;tr=udp%3A%2F%2Fexodus.desync.com%3A6969","seeders":2,"leechers":1,"uploader":".BONE.","files":2,"time":1308460213,"description":"PLOT\n\nAfter his family is killed by a terrorist act, a firefighter goes in search of the one responsible.\n &lt;a href=&quot;\nhttp://www.imdb.com/title/tt0233469/&quot; rel=&quot;nofollow&quot; target=&quot;_NEW&quot;&gt;\nhttp://www.imdb.com/title/tt0233469/&lt;/a&gt;\n\nEncoded By .......: BigPerm1828\nRuntime ..........: 1h 48mn\nFile Size ........: 1.18 GB\nResolution .......: 704x396\nIMDb URL .........: http://www.imdb.com/title/tt0233469/\nGenre ............: Action,Thriller\nLanguage .........: English\nVideo\nID : 0\nFormat : MPEG-4 Visual\nFormat profile : Advanced Simple@L5\nFormat settings, BVOP : Yes\nFormat settings, QPel : No\nFormat settings, GMC : No warppoints\nFormat settings, Matrix : Default (H.263)\nCodec ID : XVID\nCodec ID/Hint : XviD\nDuration : 1h 48mn\nBit rate : 57.5 Kbps\nWidth : 704 pixels\nHeight : 396 pixels\nDisplay aspect ratio : 16:9\nFrame rate : 23.976 fps\nColor space : YUV\nChroma subsampling : 4:2:0\nBit depth : 8 bits\nScan type : Progressive\nCompression mode : Lossy\nBits/(Pixel*Frame) : 0.009\nStream size : 44.7 MiB (4%)\nWriting library : XviD 1.2.1 (UTC 2008-12-04)\n\nAudio\nID : 1\nFormat : AC-3\nFormat/Info : Audio Coding 3\nCodec ID : 2000\nDuration : 1h 48mn\nBit rate mode : Constant\nBit rate : 448 Kbps\nChannel(s) : 6 channels\nSampling rate : 48.0 KHz\nBit depth : 16 bits\nCompression mode : Lossy\nStream size : 348 MiB (29%)\nAlignment : Aligned on interleaves\n &lt;a href=&quot;\nhttp://leetleech.org/images/88888456315731321494.png&quot; rel=&quot;nofollow&quot; target=&quot;_NEW&quot;&gt;\nhttp://leetleech.org/images/88888456315731321494.png&lt;/a&gt;\n &lt;a href=&quot;\nhttp://leetleech.org/images/61445621347219267180.png&quot; rel=&quot;nofollow&quot; target=&quot;_NEW&quot;&gt;\nhttp://leetleech.org/images/61445621347219267180.png&lt;/a&gt;\n &lt;a href=&quot;\nhttp://leetleech.org/images/07161257402400404525.png&quot; rel=&quot;nofollow&quot; target=&quot;_NEW&quot;&gt;\nhttp://leetleech.org/images/07161257402400404525.png&lt;/a&gt;\n &lt;a href=&quot;\nhttp://leetleech.org/images/38216491727147603596.png&quot; rel=&quot;nofollow&quot; target=&quot;_NEW&quot;&gt;\nhttp://leetleech.org/images/38216491727147603596.png&lt;/a&gt;\n &lt;a href=&quot;\nhttp://leetleech.org/images/39600911682843881824.png&quot; rel=&quot;nofollow&quot; target=&quot;_NEW&quot;&gt;\nhttp://leetleech.org/images/39600911682843881824.png&lt;/a&gt;","torrent":{"xt":"urn:btih:a178c1ebba60b82679e0da035135e503ed378116","amp;dn":"Collateral+Damage+2002+DVDRip+Xvid+LKRG","amp;tr":["udp%3A%2F%2Ftracker.openbittorrent.com%3A80","udp%3A%2F%2Fopen.demonii.com%3A1337","udp%3A%2F%2Ftracker.coppersurfer.tk%3A6969","udp%3A%2F%2Fexodus.desync.com%3A6969"],"infoHash":"a178c1ebba60b82679e0da035135e503ed378116","infoHashBuffer":{"type":"Buffer","data":[161,120,193,235,186,96,184,38,121,224,218,3,81,53,229,3,237,55,129,22]},"announce":[],"urlList":[]}}